<?xml version="1.0" encoding="UTF-8"?>
<svg id="Layer_2" data-name="Layer 2" xmlns="http://www.w3.org/2000/svg" viewBox="0 0 502.61 658.82">
  <defs>
    <style>
      .cls-1 {
        fill: #030303;
      }

      .cls-1, .cls-2, .cls-3, .cls-4, .cls-5 {
        stroke-width: 0px;
      }

      .cls-2 {
        fill: #c4c1bf;
      }

      .cls-3 {
        fill: #040303;
      }

      .cls-4 {
        fill: #010101;
      }

      .cls-5 {
        fill: #c4c1be;
      }
    </style>
  </defs>
  <g id="Layer_1-2" data-name="Layer 1">
    <g>
      <path class="cls-1" d="M248.32,0c-6.45,15.07-12.22,28.65-18.07,42.19-2.7,6.24-5.72,12.34-8.22,18.66-.72,1.82-.77,4.44,0,6.22,10.97,25.59,22.07,51.12,33.27,76.61,2.56,5.82,2.93,11.3.29,17.27-11.32,25.63-22.45,51.34-33.49,77.09-.76,1.78-.85,4.45-.1,6.21,10.8,25.3,21.63,50.59,32.85,75.71,3.1,6.95,3.02,12.98-.11,19.95-11.26,25.1-22.03,50.43-32.83,75.74-.7,1.65-.68,4.13.02,5.78,10.84,25.3,21.69,50.59,32.91,75.71,3.09,6.93,3.08,13.02-.04,19.99-11.24,25.11-22.07,50.41-32.8,75.74-.82,1.93-.23,4.93.66,7.03,8.18,19.39,16.57,38.69,25.25,58.86-4.34,0-8.05.22-11.73-.03-28.73-1.96-56.55-8.07-82.99-19.58-18.94-8.25-36.71-18.63-52.86-31.68-23.38-18.88-42.68-41.25-57.99-67.07-16.19-27.29-27.41-56.57-33.81-87.57-3.47-16.82-6.58-33.88-7.76-50.97-1.35-19.49-.57-39.14-.3-58.71.12-8.76.82-17.56,2.01-26.23,1.99-14.58,4.01-29.2,7.04-43.59,8-37.97,21.53-74.05,39.46-108.42,13.62-26.11,29.41-50.88,49-73,9.25-10.44,18.47-21.01,28.64-30.51,25.11-23.45,52.91-42.97,86.19-53.15,11.18-3.42,22.83-5.33,35.51-8.21ZM219.28,24.79c-.97.17-2.04.14-2.9.54-11.78,5.5-24.16,10.04-35.13,16.85-13.67,8.5-27.07,17.89-38.94,28.71-14.99,13.66-29.55,28.09-41.06,45.01-11.78,17.34-23.77,34.62-34.23,52.76-7.89,13.69-13.54,28.68-20.12,43.11-9.82,21.51-16.07,44.27-20.91,67.21-4.21,19.95-6.2,40.41-8.39,60.73-2.87,26.57-1.34,53.18,2.28,79.54,2.1,15.32,5.83,30.46,9.59,45.49,6.03,24.05,15.88,46.69,28.75,67.77,13.07,21.4,28.86,40.69,48.31,56.9,13.78,11.49,28.56,21.32,44.47,29.4,15.97,8.11,33.02,13.54,50.43,17.66,6.51,1.54,13.19,2.37,20.74,3.68-.79-2.26-1.13-3.48-1.62-4.63-4.38-10.22-8.6-20.52-13.24-30.62-2.77-6.02-3.01-11.67-.28-17.74,5.84-13.01,11.44-26.13,17.09-39.23.68-1.57,1.12-3.24,1.7-4.97-1.22-.45-1.81-.79-2.44-.88-20.23-3.01-39.38-9.35-57.5-18.79-37.08-19.34-64.33-47.9-80.68-86.54-1.37-3.25-2.51-7.17-2.02-10.53,1.73-12,8.8-18.51,20.68-20.2,8.22-1.16,17.24,4.71,21.71,14.53,5.84,12.82,13.18,24.61,22.68,35.05,17.85,19.63,39.87,32.48,65.17,39.78,7.94,2.29,16.23,3.38,25.52,5.26-10.92-25.31-21.02-49.12-31.52-72.76-2.94-6.63-2.8-12.43.15-19.04,11.29-25.31,22.19-50.8,33.07-76.28.69-1.62.59-4.07-.12-5.72-11.06-25.79-22.19-51.55-33.53-77.22-2.71-6.14-2.32-11.68.35-17.71,11.28-25.46,22.35-51.01,33.3-76.61.73-1.7.33-4.33-.45-6.15-10.96-25.64-22-51.25-33.21-76.79-2.61-5.95-2.42-11.42.22-17.27,4.43-9.82,8.48-19.81,12.69-29.73.07-.36.15-.72.22-1.08-.27.16-.55.33-.82.49Z"/>
      <path class="cls-3" d="M275.89,2.79c31.32,10.75,59.99,24.79,85.06,45.95,33.13,27.95,60.05,60.89,81.92,98.14,17.09,29.1,30.58,59.81,40.5,92.05,6.98,22.7,11.89,45.85,15.2,69.42,3.57,25.44,4.7,50.96,3.67,76.5-1.7,42.28-9.84,83.39-27.07,122.24-10.6,23.91-24.04,46.16-41.33,66.08-23.92,27.55-52.16,49.13-85.36,64.17-16.71,7.58-34.09,13.13-52.14,16.63-5.54,1.07-10.92,2.95-16.46,4-1.3.25-3.79-1.02-4.32-2.21-7.77-17.4-15.26-34.92-22.91-52.37-2.29-5.22-2.17-10.25.09-15.42,11.29-25.83,22.57-51.67,33.69-77.58.77-1.78.9-4.44.15-6.18-11.09-25.88-22.32-51.69-33.65-77.47-2.43-5.53-2.57-10.74-.12-16.32,11.34-25.77,22.56-51.58,33.66-77.45.76-1.77.8-4.42.05-6.17-11.1-25.87-22.37-51.68-33.67-77.47-2.26-5.15-2.62-10.14-.31-15.4,11.35-25.94,22.66-51.9,33.8-77.93.81-1.9.89-4.73.08-6.61-11.1-25.93-22.4-51.77-33.68-77.62-2.09-4.79-2.54-9.51-.38-14.46,7.87-18.06,15.63-36.16,23.53-54.5ZM299.38,494.36c36.09-12.18,63.29-33.92,80.92-67.21,2.02-3.82,3.64-7.9,6.02-11.47,5.97-8.93,17.9-11.6,27.53-6.97,8.78,4.22,14.82,17.58,10.87,26.61-8.85,20.23-20.61,38.36-36.03,54.13-26.26,26.86-58.21,43.32-94.64,51.36-3.13.69-4.49,1.9-5.63,4.57-5.59,13.12-10.89,26.39-17.18,39.17-3.87,7.86-4.04,14.58,0,22.42,5.2,10.11,9.23,20.81,13.79,31.3,22.03-2.89,42.27-10.12,61.65-19.45,16.84-8.1,32.74-18.02,46.67-30.68,8.91-8.1,18.26-15.9,26.02-25.01,8.73-10.25,16.2-21.62,23.67-32.87,10.66-16.07,18.26-33.63,24.46-51.88,5.81-17.12,10.08-34.54,13.12-52.36,3.49-20.53,5.24-41.16,4.62-61.92-.48-15.89-1.75-31.78-3.25-47.61-.97-10.33-2.51-20.66-4.64-30.81-2.6-12.46-5.25-25.01-9.37-37.02-6.69-19.51-13.79-38.96-22.21-57.76-7.01-15.64-15.54-30.71-24.57-45.31-8.23-13.31-17.68-25.93-27.26-38.33-6.03-7.81-13.11-14.83-20.03-21.91-7.37-7.54-14.62-15.31-22.79-21.9-9.85-7.95-20.2-15.48-31.1-21.89-11.42-6.72-23.74-11.9-35.93-17.87-5.73,13.21-10.98,25.02-15.91,36.97-.8,1.93-.9,4.75-.1,6.64,10.94,25.63,22.05,51.18,33.22,76.71,2.39,5.46,2.89,10.67.41,16.33-11.29,25.7-22.45,51.47-33.45,77.29-.87,2.04-.96,5.07-.1,7.08,10.94,25.63,22.05,51.19,33.28,76.69,2.53,5.73,2.55,11.08.03,16.81-11.21,25.52-22.32,51.1-33.25,76.74-.87,2.03-.82,5-.02,7.09,2.67,6.96,5.9,13.7,8.86,20.54,7.38,17.06,14.72,34.14,22.34,51.79Z"/>
      <path class="cls-5" d="M219.88,25.39c-4.21,9.92-8.27,19.91-12.69,29.73-2.64,5.85-2.83,11.32-.22,17.27,11.21,25.53,22.25,51.14,33.21,76.79.78,1.81,1.18,4.45.45,6.15-10.95,25.6-22.02,51.15-33.3,76.61-2.67,6.03-3.06,11.56-.35,17.71,11.34,25.67,22.47,51.43,33.53,77.22.71,1.65.81,4.1.12,5.72-10.88,25.49-21.78,50.98-33.07,76.28-2.95,6.61-3.1,12.41-.15,19.04,10.5,23.64,20.6,47.45,31.52,72.76-9.29-1.87-17.58-2.97-25.52-5.26-25.3-7.29-47.32-20.15-65.17-39.78-9.5-10.45-16.85-22.23-22.68-35.05-4.47-9.82-13.49-15.69-21.71-14.53-11.89,1.68-18.95,8.2-20.68,20.2-.48,3.36.65,7.28,2.02,10.53,16.35,38.64,43.6,67.2,80.68,86.54,18.12,9.45,37.27,15.78,57.5,18.79.63.09,1.22.43,2.44.88-.59,1.73-1.02,3.4-1.7,4.97-5.66,13.09-11.25,26.22-17.09,39.23-2.73,6.07-2.49,11.72.28,17.74,4.65,10.1,8.87,20.39,13.24,30.62.49,1.15.84,2.37,1.62,4.63-7.54-1.32-14.22-2.14-20.74-3.68-17.42-4.12-34.46-9.55-50.43-17.66-15.9-8.08-30.69-17.91-44.47-29.4-19.45-16.22-35.24-35.51-48.31-56.9-12.87-21.08-22.72-43.73-28.75-67.77-3.77-15.03-7.49-30.17-9.59-45.49-3.62-26.37-5.15-52.98-2.28-79.54,2.19-20.32,4.18-40.78,8.39-60.73,4.84-22.95,11.09-45.7,20.91-67.21,6.59-14.44,12.23-29.42,20.12-43.11,10.45-18.14,22.44-35.42,34.23-52.76,11.5-16.93,26.06-31.36,41.06-45.01,11.87-10.81,25.27-20.21,38.94-28.71,10.96-6.82,23.35-11.36,35.13-16.85.86-.4,1.93-.37,2.9-.54.19.21.39.41.6.6ZM109.22,252.1c.07,15.14,3.47,29.31,13.45,41.21,11.72,13.96,28.82,14.06,40.93.46,1.22-1.36,2.38-2.79,3.42-4.29,14.47-20.74,14.02-55.5-.94-75.81-12.94-17.56-32.89-17.46-45.65.31-8.16,11.36-11.13,24.29-11.21,38.12Z"/>
      <path class="cls-5" d="M219.28,24.79c.27-.16.55-.33.82-.49-.07.36-.15.72-.22,1.09-.21-.19-.41-.39-.6-.6Z"/>
      <path class="cls-2" d="M299.38,494.36c-7.61-17.66-14.96-34.73-22.34-51.79-2.96-6.85-6.19-13.59-8.86-20.54-.8-2.09-.85-5.06.02-7.09,10.94-25.64,22.04-51.22,33.25-76.74,2.52-5.73,2.49-11.08-.03-16.81-11.23-25.5-22.34-51.06-33.28-76.69-.86-2.01-.77-5.04.1-7.08,11-25.83,22.16-51.59,33.45-77.29,2.49-5.66,1.98-10.87-.41-16.33-11.16-25.53-22.28-51.08-33.22-76.71-.8-1.89-.7-4.71.1-6.64,4.93-11.95,10.18-23.76,15.91-36.97,12.19,5.98,24.51,11.16,35.93,17.87,10.9,6.41,21.25,13.94,31.1,21.89,8.17,6.59,15.42,14.37,22.79,21.9,6.92,7.08,14,14.1,20.03,21.91,9.58,12.41,19.03,25.02,27.26,38.33,9.02,14.6,17.56,29.67,24.57,45.31,8.42,18.8,15.52,38.25,22.21,57.76,4.11,12,6.77,24.56,9.37,37.02,2.12,10.15,3.66,20.48,4.64,30.81,1.49,15.83,2.77,31.72,3.25,47.61.62,20.76-1.13,41.39-4.62,61.92-3.03,17.83-7.3,35.24-13.12,52.36-6.2,18.25-13.8,35.82-24.46,51.88-7.46,11.25-14.94,22.62-23.67,32.87-7.76,9.12-17.11,16.92-26.02,25.01-13.93,12.66-29.83,22.58-46.67,30.68-19.38,9.33-39.62,16.57-61.65,19.45-4.55-10.48-8.58-21.19-13.79-31.3-4.03-7.84-3.86-14.57,0-22.42,6.3-12.78,11.6-26.05,17.18-39.17,1.14-2.67,2.5-3.88,5.63-4.57,36.43-8.04,68.39-24.5,94.64-51.36,15.42-15.77,27.17-33.9,36.03-54.13,3.95-9.02-2.1-22.39-10.87-26.61-9.63-4.63-21.56-1.96-27.53,6.97-2.39,3.57-4,7.65-6.02,11.47-17.63,33.28-44.83,55.03-80.92,67.21ZM399.58,251.43c-.26-15.13-3.72-30.3-15.47-42.35-11.23-11.52-26.17-11.41-37.49.04-9.04,9.14-13.16,20.65-14.72,33.06-2.33,18.47.55,35.95,12.64,50.76,12.19,14.92,30.07,14.59,42.17-.4,9.4-11.65,12.64-25.34,12.87-41.11Z"/>
      <path class="cls-4" d="M109.22,252.1c.09-13.83,3.05-26.77,11.21-38.12,12.76-17.77,32.71-17.87,45.65-.31,14.97,20.31,15.41,55.07.94,75.81-1.04,1.5-2.21,2.93-3.42,4.29-12.11,13.6-29.22,13.5-40.93-.46-9.98-11.9-13.38-26.07-13.45-41.21Z"/>
      <path class="cls-4" d="M399.58,251.43c-.22,15.76-3.47,29.46-12.87,41.11-12.1,14.99-29.99,15.32-42.17.4-12.1-14.81-14.97-32.29-12.64-50.76,1.56-12.41,5.68-23.92,14.72-33.06,11.33-11.45,26.27-11.56,37.49-.04,11.74,12.05,15.21,27.22,15.47,42.35Z"/>
    </g>
  </g>
</svg>